# xmcd
#
# Track frame offsets: 
#        150
#        16586
#        41198
#        68192
#        101739
#        126319
#        161433
#        172145
#        192174
#
# Disc length: 2770 seconds
#
# Revision: 0
# Processed by: cddbd v1.5.2PL0 Copyright (c) Steve Scherf et al.
# Submitted via: ExactAudioCopyFreeDBPlugin 1.0
#
DISCID=780ad009
DTITLE=Muddy Waters - Hard again
DYEAR=1977
DGENRE=Blues
TTITLE0=Mannish Boy
TTITLE1=Bus Driver
TTITLE2=I Want to Be Loved
TTITLE3=Jealous Hearted Man
TTITLE4=I Can't Be Satisfied
TTITLE5=The Blues Had a Baby and They Named It Rock and Roll 2
TTITLE6=Deep Down in Florida
TTITLE7=Crosseyed Cat
TTITLE8=Little Girl
EXTD=
EXTT0=
EXTT1=
EXTT2=
EXTT3=
EXTT4=
EXTT5=
EXTT6=
EXTT7=
EXTT8=
PLAYORDER=
